<svg xmlns="http://www.w3.org/2000/svg" viewBox="0 0 150 113">
<!-- SVG created with Arrow, by QuiverAI (https://quiver.ai) -->
  <style type="text/css">.cls-0 {fill:#58C8DB;}
.cls-1 {fill:#892DA8;}
.cls-2 {fill:#6E1E89;}
.cls-3 {fill:#70E1EE;}
.cls-4 {fill:#9834B5;}
.cls-5 {fill:#E37DEE;}
.cls-6 {fill:#471456;}</style>

  <path class="cls-4" d="m133.9 12.7-1-0.1v-1.6h0.1v-5.9l-1.1-0.1 0.1-1.9-3-0.1-0.1 0.7-0.8-0.1v-0.6l-3.2-0.1 0.1-1-3.3-0.1-0.1-0.6h-2.3l0.1-0.7h-4.5l-0.2-0.5h-18.2l-0.1 0.4h-3.9l-0.1 0.8-6 0.1-0.4 0.4h-2.4v0.3l-5.8 0.1-0.2 1h-2.2v0.6h-5.3l-0.1 0.3h-2.6v0.8l-3.7 0.1-0.9 0.2-0.1 1.9-3 0.1-0.1 0.2-3 0.1v1.9l-2.9 0.1-0.2 0.3-2 0.1v1.4l-1 0.1-1-0.4v2l-2.1 0.1v1.1l-1.6 0.1v0.9l-1.8 0.1-0.1 0.7-4.2 0.4v0.6l-2.6 0.1v1.6l-3.6 0.1-0.1 0.5-2.2 0.1v1.4l-2.5 0.1-0.1 0.3-2.7 0.1v0.5l-3.1 0.1-0.1 0.8-1.9 0.2v0.5l-3.1 0.2v0.5l-2.5 0.1v0.9l-2 0.1v0.3h-1.4v3.2l-0.9 0.1-0.1 5h-0.2v5.3h-0.9v33.9h0.8l0.1 8.1 0.2 0.1v5.9l-0.3 0.1 0.1 2.7h5v0.8l2.1 0.1 0.1 0.6h2.8l0.1 0.7h1.7l0.4 0.3 3.1 0.1 0.1 1 2.5 0.1 0.1 0.6 2.2 0.1v1.5h2.6l0.1 1.2 3.5 0.1 0.1 1h1.6v1.2l2.9 0.1v2l2.2 0.1 0.1 1 2.9 0.1 0.1 0.9 0.7 0.1 0.1 2.8 3.7 0.1 0.1 1.2h17.1v-0.9l5.2-0.1 0.1-0.2 5.4-0.1v-0.9l2.5-0.1v-0.6l6.6-0.1 0.1-0.7h2.1v-0.6h3.3v-0.9l2.3-0.2 0.1-0.4 2-0.1v-0.2l2.6-0.1 0.1-1.3 3.2-0.1 0.1-0.7 2.4-0.1v-1.2l3.2-0.1 0.1-1h2.5v-1.2l2.5-0.1 0.1-0.2h2.4v-1.9h2.2v-1.2h2.7v-1.4l2.2-0.2v-0.7l0.4-0.2v-2.8h1.3l0.1-2.8 0.3-0.2v-2.5l0.7-0.1v-2.5l1-1v-2.9l0.7-0.5v-5.8l1-2.4v-1.3h1.3l0.1-1.4 0.2-0.6 0.1-1.5 0.6-0.5 0.2-6.3 0.6-0.1 0.1-3.3 0.6-0.1v-8.2h0.9v-30.3z"/>
  <path class="cls-1" d="m128.7 6.6-0.2-0.1-0.3-0.1h-0.2 0.2 0.1l0.2 0.1z"/>
  <path class="cls-1" d="m129.8 12.4-0.3-1.4 0.4 1.6z"/>
  <path class="cls-1" d="m130.2 10.9-0.3-0.1 0.2 0.1 0.2 1.7z"/>
  <path class="cls-1" d="m129.8 6.7v4.1l0.4 0.1 1.6 2 0.2 30.2-0.7-0.1v8.2l-1.4 0.2v3.3l-0.4 0.2v6.1l-0.4 0.1-0.1 2.5-0.6 0.1v2.5l-1.3-0.5 0.1-3.1 1.1-5.3 0.1-7 0.3-0.4 0.1-2.9 0.3-0.8 0.1-2.2 0.3-0.5v-7.3l0.2-0.6 0.1-3.1 0.3-0.6 0.1-14.5-0.3-0.5v-1.3l-0.4-1-1.1-1.7-0.4-1.1-0.4-0.4-0.4-0.9-1.3-1.7-1-0.9-0.4-0.6-1.3-0.9-0.4-0.5-1.7-1-4.7-1.4-12.6 0.1 0.1 0.2-5.5 0.1 0.1 0.1-4.7 0.1-0.8 0.3h-9.5v-0.3h-5.9v0.5l-2.4 0.1v1.7h-5.2v0.6h-2.6l-0.1 0.3-1.9 0.1-0.1 1.3-2.5 0.1v0.9h-3.3v1l-3 0.1-0.1 1h-1.2l-0.1 0.9-3 0.2v1.1l-2.2 0.3v1.5l-2.3 0.1v4.9l-0.3 0.1v8h-0.6v8.1l-0.7 0.1v10.4l-0.6 0.1v21.7h5.9v-20.4h0.2v-9.5l0.6-0.1v-12.7l1.2-0.1 0.1-4.7 0.5-0.4 1.2-0.2 0.2-2.2 1.3-0.4 0.1-0.4h0.8l0.1-0.5 1.1-0.1v-0.6l2-0.4 1.7-0.3v-0.4l3-0.8 2-0.3v-1.1l4-0.7 1.7-0.2 4.6-0.1 0.1-0.9 2.2-0.1v-0.5h5.6l0.2-0.3 6.6-0.1v-1.1h4.4l0.1-0.3h14.5v0.3h6.2l0.1 1.1h2v0.9l5.3 0.1v1.8l1.3 0.1v3.7l0.4 0.2v3.3l0.7 0.1v23.9l-0.7 0.1v7.1l-0.3 0.1-0.1 7.5-1.1 0.1-0.2 2.5-0.3 0.3-0.1 1.7h-1l-0.1 3.1-0.8 0.1v4.1l-0.4 0.1v3l-0.2 0.1-0.2 2-0.5 0.1-0.1 2.8-0.8 0.1v1.6l-0.8 0.1v2.2l-0.7 0.1-0.3 1.3h-0.8l-0.1 1.1-1.2 0.1-0.1 0.6-2.7 0.1-0.1 2-2.3 0.1-0.2 0.3-2.5 0.1-0.3 0.5-1.7 0.1-0.1 1.2-2 0.1-0.3 0.5h-2.3l-1 0.1v1.2l-3.1 0.2v5.4h1l0.1-0.8h2v-1l3.2-0.2 0.1-0.4 2.4-0.1v-0.6l1.9-0.1 0.1-1.3 3.8-0.1v-0.7l2.5-0.1 0.1-1.1h2.3l0.1-0.9 2.2-0.1v-1.3l0.8-0.1 0.1-0.8 1.3-0.1 0.1-1 0.4-0.1 0.2-1.9 0.1-1.7 0.9-0.1v-2.7l1.1-0.1 0.3-4.9h1.4l0.3-7.8 0.7-0.1v-2.9h-0.3v-3.1l1-5.3 0.3-7 0.3-0.4 0.1-2.9 0.3-0.8 0.1-2.2 0.3-0.5v-7.3l0.2-0.6 0.1-3.1 0.3-0.6 0.1-5h0.4l1.2-14-1.2-0.3z"/>
  <path class="cls-2" d="m97.9 93.4-4 0.1-0.1 0.5-3.2 0.1v1h-1.9l-0.2 0.3-4.9 0.1-0.1 0.5-7.2 0.2-0.3 0.7h-3.6v0.8l-13.8 0.1v-1.5l-2.6-0.1v-2l-1.5-0.2-0.1-1.7-0.7-0.4-0.1-2-0.3-0.4-0.1-1.5-1.1-0.1-0.1-4.3h-0.5l-0.1-6.7-0.2-0.2 0.1-7.4h-5.9l0.2 11.8 0.4 0.1v8l0.7 0.2v2.5l0.6 0.4 0.1 1.9 0.2 0.1 0.1 2.5 0.9 0.2 0.1 2.7 0.7 0.3 0.1 1.7 3.9 0.1 0.1 2.9 15.1-0.1 0.1-0.5 5.2-0.1v-0.6l5.3-0.1 0.1-0.8 2.5-0.1 0.1-0.6 6.3-0.1 0.2-0.4h2.2l0.3-1.2 2.1-0.1 0.1-0.6 3.2-0.1v-0.3h1.6l0.3-0.2z"/>
  <path class="cls-1" d="m45.4 18.6h-1.9l-0.4 0.4-3.4 0.2-0.1 0.3-2.5 0.1v1.4l-2.1 0.2-0.1 0.6h-3.7v1.7h-2.5l-0.1 0.5-2.6 0.1-0.1 0.9-3.1 0.1-0.1 0.4h-2l-0.1 0.7-2.9 0.4-2.5 0.3-0.1 0.9-0.7 0.1-0.6 1-0.1 4.6-0.6 0.2v5.3h-0.7v27.3c2.6 2.3 3.5 4 10.4 5.3l0.2 0.9 15.3 1.5 1.7-0.7 1.6-0.1 0.8-0.3 0.5-1v-0.3-0.3-23.8l0.3-0.1v-10.3l0.6-0.1v-8.1l1-0.3 0.1-8.1 0.4-0.1 0.1-1.8z"/>
  <path class="cls-2" d="m22.8 71.6 0.1 1.3h0.7l0.1 0.8h0.9l0.1 0.4h1.2l1 0.4 6.6 0.1v-0.6h4.8l1.7-0.7 1.6-0.1 0.8-0.3 0.5-1v-0.3-0.3l-0.1 0.6-0.9 1.3-1.6 0.1-2 0.7h-4.8v-1.1h-5.8l-0.1-0.5-1-0.1-0.2-0.7-1.3-0.1-0.2-0.2z"/>
  <path class="cls-2" d="m15.7 57.3 0.1 1.4 0.8 1.1 5.6 1.5 3.7 0.4h3.2l0.4 0.3h4.5l0.4 0.3 3.7 0.1v-1.3h-3.3l-0.1-0.1h-7v-0.9h-1.3l-0.4-0.8-3.3-0.2v-0.4l-3.7-0.1-0.1-0.7z"/>
  <path class="cls-2" d="m21.2 47.5 0.4 1.6 4.3 0.6 5.2 1.1 4.7 0.2v-1.6l-1.8-0.3-0.1-0.2-7.5-0.2v-1.2z"/>
  <path class="cls-2" d="m19.4 35.6 0.5 0.9c2.4 1.4 5.7 3.1 8.6 3.5l8.7-0.2 2.5-0.9-12-0.2v-0.8l-3.3-0.2v-0.7l-2.2-0.3-0.2-0.5-2.6-0.6z"/>
  <path class="cls-2" d="m12.4 66.3v6.6h0.7v8.3l0.6 0.1v5.7l1.9 0.1 0.1 0.8 2.7 0.1 0.1 0.9 2.1 0.1 0.2 0.4h2l0.1 0.4 3.1 0.1 0.1 1.4 2.6 0.1 0.2 0.5 2.2 0.1v1.5h2.4l0.1 0.5 3.6 0.2v1.2l2.4 0.1 0.1 0.8h1.9l0.1 1.5 3 0.1 0.1 1.1 1.3 0.2v-2.3l-0.5-0.1-0.2-2.8h-0.7l-0.2-2.1-0.7-0.5v-2l-0.6-0.3v-7.8l-0.3-0.2v-9.8l-0.5 1.2-0.8 0.8h-1.6l-1.7 0.7h-4.8v0.6l-6.6-0.1-1-0.4h-1.2l-0.1-0.4h-0.9l-0.1-0.8h-0.8v-1.3c-6.5-1.1-7.8-2.7-10.4-5.3z"/>
  <path class="cls-3" d="m14.2 28.9 4.3-0.3c3.5-0.4 5.7-1.7 8.4-2.7 4.7-0.5 10-2.1 13.5-3.5 2.1-0.4 3.7-1.1 4.9-2l0.1-0.9v-0.9h-1.9l-0.4 0.4-3.4 0.2-0.1 0.3-2.5 0.1v1.4l-2.1 0.2-0.1 0.6h-3.7v1.7h-2.5l-0.1 0.5-2.6 0.1-0.1 0.9-3.1 0.1-0.1 0.4h-2l-0.1 0.7-2.9 0.4-2.5 0.3-0.1 0.9-0.7 0.1z"/>
  <path class="cls-3" d="m83.5 4.1 0.1-0.1h2.8l0.1-0.3h5.9l0.1-0.6 4.4-0.1 0.2-0.7h17.6v0.1h5l0.1 1.1h2.6v0.2l2.6 0.1 0.1 1.5 3.1 0.1v1l1.3 0.1 0.4 0.4 0.2 3.9 0.5 0.1 1.2 2v30.1h-0.4-0.1v0.1l-0.7-0.1v8.2l-0.4 0.2h-0.3v3.3l-0.4 0.2v6.1l-0.4 0.1-0.1 2.5-0.6 0.1v2.5l-1-0.3v2.7l-0.7 0.1-3.5 11.8 0.2 2 1.3-1.1 0.3-4.9h1.4l0.3-2h0.2v-5.8l0.5-0.1v-2.9h-0.3v-3.1l1-5.3 0.3-7 0.3-0.4 0.1-2.9 0.3-0.8 0.1-2.2 0.3-0.5v-7.3l0.2-0.6 0.1-3.1 0.3-0.6 0.1-5h0.1l0.3-14-0.5-0.3-0.2-1.8h-0.4 0.4-0.4v-3.9l-0.4-0.4h-0.1l-0.5-0.1h-0.3v-1l-3.1-0.1-0.1-1.5-2.6-0.1v-0.2h-2.6l-0.1-0.3h-5v-0.8h-17.6l-0.2 0.6-4.4 0.1-0.1 0.6h-5.9l-0.1 0.3h-2.9z"/>
  <path class="cls-3" d="m67.8 16.6-1.3 0.4-3.2 0.4-0.1 1.8-1.5 0.3v1.2l-2.2 0.2-0.1 0.1-2.3 0.2v1.6l-1.2 0.1v3.7l-0.6 0.3v6.6l-0.9 0.2-0.1 5.7-0.6 0.1-0.1 9.4-0.3 0.1 0.1 27.8h0.5 6.5l0.1-0.3 1.9-0.1 1.6-0.3v-0.4l3.4-0.1v-0.1l2.1-0.1-0.1-4.3h-0.2v-13.8l-0.2-0.3-0.1-10.8-0.3-0.3-0.1-8-0.3-0.2-0.1-6.1-0.2-0.1v-6l-0.1-0.1z"/>
  <path class="cls-3" d="m77.1 75.7 0.3 2 0.2 0.2 0.1 1.1 0.2-0.1v2.2l0.3 0.8 0.1 2.1h0.2l0.1 3.8 0.3 0.1v6.2l2.4-0.1 0.1-0.5 9.3-0.5v-0.7h2.3l0.1-0.3 2.7-0.1 0.4-0.5h0.7v-0.6l2.9-0.2v-0.6l1.8-0.2v-0.9l0.3-0.5 0.2-3.8 0.2-0.1v-8.6l-0.3-0.3-0.1-2.4-0.5-0.4-1.6 0.4-7.4 0.8h-2.5l-7.2 0.6-3.8 0.5-0.3 0.4z"/>
  <path class="cls-5" d="m77.6 13.7v0.3l-3.5 0.1-1 0.3v0.4l-1.7 0.3-0.3 0.6-1.4 0.3-0.7 0.6-0.1 8.8h0.3l0.1 6.2h0.3v6.1l0.4 0.5v8h0.2l0.1 10.8 0.2 0.2v14.1h0.3v3.3h4.4v-0.1l4.1-0.2v-0.2l2.1-0.1v-0.1h2.1l0.1-0.2 4.2-0.2v-0.2h2.1l1.5-0.4 0.2-0.5h0.4l0.1-18.5-0.3-0.2-0.1-12.8-0.3-0.2v-9.7l-0.4-0.2v-6.2l-0.3-0.1v-6.1l-0.3-0.2v-5.5h-2l-0.3 0.7-1.4 0.2-0.2-0.9-1.1 0.2-0.1 0.7z"/>
  <path class="cls-1" d="m91.7 12.7v5.7l0.2 0.2v6l0.3 0.3 0.2 6.1 0.2 0.1v9.6l0.3 0.2 0.1 12.8 0.3 0.2 0.1 18.4 1.3 0.1v0.2l2.2-0.2v-0.1l1.6-0.1 0.1-0.1 2-0.2v-0.2l7.3-0.7v-0.1h0.8l0.4-0.2 1.8-0.3v-0.1h0.1-0.1l0.7-0.1-0.4-59-14.5 0.1v0.5h-4.3z"/>
  <path class="cls-1" d="m102.9 72.6 0.1 0.6 0.1 2.5 0.4 0.2v8.7h-0.3l-0.1 3.8h-0.2l0.1 1.4 2.1-0.3-0.1-0.5 1.7-0.1v-0.5l0.4-0.4h1.3l0.3-0.1v-1.3l3.8-0.2v-0.4l1.3-0.1 0.3-0.3 2.3-0.1v-1.8l0.8-0.1 0.3-1.7 1.2-0.4v-1.8h0.7v-4.9l0.3-0.1v-1.8l0.9-0.3v-1.5l0.7-0.1v-1.5l-8.8 1.1-0.4 0.7-2.2 0.2-1.5 0.4-3.8 0.5z"/>
  <path class="cls-6" d="m18.5 33.3v2.1l2.1 0.2 0.2 0.6 1.4 0.3v0.2l2.2 0.3 0.2 0.7 1.8 0.2h1.3l0.2 0.8h12.9v-2h-11.3v-0.8h-3.1l-0.4-0.3-1.6-0.1v-0.9l-2-0.2v-0.7l-1.6-0.1-0.2-0.3z"/>
  <path class="cls-6" d="m21.1 45.3v2.2h5.3l0.1 0.9 7.4 0.2 0.1 0.5h1.2l0.1 1.9h2.2v-3.4l-0.5-0.7h-1.7l-0.1-0.7h-7.5l-0.1-0.9z"/>
  <path class="cls-6" d="m15.6 54.8v2.2l1.8 0.5 1.6 0.1v0.8l3.7 0.2v0.5l3.3 0.2 0.4 0.8h1.3l0.2 0.9 7.3 0.3 0.6 0.2h2.3l0.5-0.4v-2.5h-1.5v0.5h-1.1l-0.2-0.5h-6.3v-0.9l-1.9-0.1v-0.3l-4-0.1v-0.8l-2.9-0.2-0.1-0.9-2.9-0.2-0.1-0.3z"/>
  <path class="cls-6" d="m22.9 71.3v1.6h0.7l0.1 0.8h0.9l0.1 0.4h1.2l1 0.4 6.6 0.1v-1.7h-5.8l-0.1-0.5-1-0.1-0.2-0.7-1.3-0.1-0.2-0.2z"/>
  <path class="cls-6" d="m18.5 79.5v1.8l4.2 0.2 0.1 0.5 1.6 0.1 0.2 0.8 3 0.8v0.3l1.9 0.2 0.4 1.3 2.5 0.4v0.5h1.2l0.3 0.6 1.9 0.2 0.2 0.7 1.2 0.1 0.1 0.9h3.2v-2.5l-1.8-0.1-0.4-0.4h-1.2l-0.1-0.3-1.7-0.1-0.1-1.2-1.6-0.1-0.5-0.6-0.7-0.2-1.3-0.2-0.4-1.1-1.2-0.1v-0.5l-2.6-0.4-0.9-0.2-0.1-0.9-2.3-0.2-0.7-0.3z"/>
  <path class="cls-6" d="m53.6 76.8c0.5 13.8 2 18.9 10.4 18.8l14.9-1.2v-6.5l-0.3-0.1-0.1-3.8h-0.2l-0.1-2.1-0.3-0.8v-2.2l-0.2 0.1-0.1-1.1-0.2-0.2-0.3-2-1.9-0.7h-4.4l-1.3 0.4-2.1 0.1v0.1l-3.4 0.1v0.4l-1.6 0.3-1.9 0.1-0.1 0.3z"/>
  <path class="cls-6" d="m111.2 11.8c8.6 0.6 13.9 1.9 13.8 10 0.1 20.6-0.1 43.3-5.3 47.7l-8.8 0.8v-11.7l-0.3-0.2v-16.8l0.3-0.2v-11h0.3z"/>
  <path class="cls-4" d="m111.6 11.7"/>
</svg>